<svg width="10" height="11" viewBox="0 0 10 11" fill="none" xmlns="http://www.w3.org/2000/svg">
<path d="M4.90236 3.16168C5.06134 3.16168 5.1946 3.10843 5.30215 3.00195C5.40969 2.89547 5.46346 2.76353 5.46346 2.60612C5.46346 2.44871 5.40969 2.31677 5.30215 2.21029C5.1946 2.10381 5.06134 2.05056 4.90236 2.05056C4.74338 2.05056 4.61012 2.10381 4.50258 2.21029C4.39503 2.31677 4.34126 2.44871 4.34126 2.60612C4.34126 2.76353 4.39503 2.89547 4.50258 3.00195C4.61012 3.10843 4.74338 3.16168 4.90236 3.16168ZM6.48747 3.16168H7.46939C7.74994 3.16168 7.99309 3.25427 8.19883 3.43945C8.40456 3.62464 8.53081 3.85149 8.57757 4.12001L9.37714 9.67556C9.42389 10.0089 9.33739 10.3029 9.11763 10.5575C8.89786 10.8121 8.61497 10.9395 8.26896 10.9395H1.53576C1.18975 10.9395 0.906861 10.8121 0.687097 10.5575C0.467333 10.3029 0.38083 10.0089 0.427588 9.67556L1.22716 4.12001C1.27391 3.85149 1.40016 3.62464 1.6059 3.43945C1.81164 3.25427 2.05478 3.16168 2.33533 3.16168H3.31725C3.2892 3.06908 3.26582 2.97881 3.24712 2.89084C3.22841 2.80288 3.21906 2.70797 3.21906 2.60612C3.21906 2.14316 3.38272 1.74964 3.71002 1.42556C4.03733 1.10149 4.43478 0.939453 4.90236 0.939453C5.36995 0.939453 5.76739 1.10149 6.0947 1.42556C6.42201 1.74964 6.58566 2.14316 6.58566 2.60612C6.58566 2.70797 6.57631 2.80288 6.55761 2.89084C6.5389 2.97881 6.51552 3.06908 6.48747 3.16168Z" fill="black"/>
</svg>
