<svg width="40" height="40" viewBox="0 0 40 40" fill="none" xmlns="http://www.w3.org/2000/svg">
<path fill-rule="evenodd" clip-rule="evenodd" d="M40 20C40 31.0457 31.0457 40 20 40C8.9543 40 0 31.0457 0 20C0 8.9543 8.9543 0 20 0C31.0457 0 40 8.9543 40 20ZM14.5646 7.80469H25.4261C26.237 7.80469 26.8944 8.46206 26.8944 9.27298V13.4018C26.8944 14.2127 26.237 14.8701 25.4261 14.8701H14.5646C13.7537 14.8701 13.0964 14.2127 13.0964 13.4018V9.27298C13.0964 8.46206 13.7537 7.80469 14.5646 7.80469ZM17.6553 16.638H6.79381C5.9829 16.638 5.32552 17.2954 5.32552 18.1063V22.2351C5.32552 23.046 5.9829 23.7034 6.79381 23.7034H17.6553C18.4662 23.7034 19.1236 23.046 19.1236 22.2351V18.1063C19.1236 17.2954 18.4662 16.638 17.6553 16.638ZM33.1898 16.638H22.3283C21.5174 16.638 20.86 17.2954 20.86 18.1063V22.2351C20.86 23.046 21.5174 23.7034 22.3283 23.7034H33.1898C34.0007 23.7034 34.6581 23.046 34.6581 22.2351V18.1063C34.6581 17.2954 34.0007 16.638 33.1898 16.638ZM25.4261 25.4714H14.5646C13.7537 25.4714 13.0964 26.1287 13.0964 26.9396V31.0684C13.0964 31.8793 13.7537 32.5367 14.5646 32.5367H25.4261C26.237 32.5367 26.8944 31.8793 26.8944 31.0684V26.9396C26.8944 26.1287 26.237 25.4714 25.4261 25.4714Z" fill="white"/>
</svg>
